<?xml version="1.0" encoding="UTF-8" standalone="no"?>
<!DOCTYPE svg PUBLIC "-//W3C//DTD SVG 1.1//EN" "http://www.w3.org/Graphics/SVG/1.1/DTD/svg11.dtd">
<svg width="100%" height="100%" viewBox="0 0 1291 1527" version="1.1" xmlns="http://www.w3.org/2000/svg" xmlns:xlink="http://www.w3.org/1999/xlink" xml:space="preserve" xmlns:serif="http://www.serif.com/" style="fill-rule:evenodd;clip-rule:evenodd;stroke-linecap:round;stroke-linejoin:round;stroke-miterlimit:1.5;">
    <g transform="matrix(1,0,0,1,-4.39576,-1.99288)">
        <g transform="matrix(1.82337,0,0,1.82337,-1885.02,-668.166)">
            <path d="M1506.98,575.442C1508.67,572.396 1511.3,569.71 1515.38,569.509C1526.9,568.941 1526.99,568.854 1526.99,568.854L1527.02,563.153C1527.02,563.153 1524.86,563.102 1515.48,563.299C1509.91,563.417 1504.2,569.584 1504.2,569.584C1498.17,576.598 1497.04,580.224 1496.47,590.275C1495.59,605.567 1494.52,616.728 1495.95,629.229C1496.97,638.183 1503.12,650.767 1503.69,658.276C1504.52,668.959 1506.56,673.323 1503.58,681.632C1501.44,687.59 1496.73,696.403 1489.94,696.691C1485.63,696.873 1486.45,696.868 1480.55,696.692C1474.58,696.514 1471.98,692.794 1471.9,684.824C1471.82,676.853 1473.06,622.289 1473.76,613.641C1476.26,583.116 1479.6,570.931 1481.56,562.522C1483.93,552.342 1504.77,481.821 1504.77,481.821L1499.05,480.843C1499.05,480.843 1498.65,482.701 1497.29,486.663C1491.62,503.251 1476.66,547.75 1473.95,563.152C1472.77,569.876 1468.22,583.488 1466.7,613.446C1465.11,644.892 1465.05,675.583 1465.75,685.452C1466.64,698.043 1472.38,701.006 1479.68,701.277C1488.28,701.596 1484.92,701.462 1491.41,701.494C1501.75,701.545 1505.8,690.644 1507.9,682.704C1509.96,674.863 1509.99,668.32 1508.52,657.388C1507.6,650.552 1502.85,637.545 1501.3,629.28C1499.86,621.6 1501.48,605.798 1502.02,590.674C1502.39,580.489 1504.1,580.609 1506.98,575.442Z" style="stroke:black;stroke-width:0.55px;"/>
            <g transform="matrix(0.917269,0.0748772,-0.0748772,0.917269,159.26,-70.8592)">
                <g transform="matrix(1.08298,-0.088404,0.088404,1.08298,-166.21,90.818)">
                    <path d="M1502.89,461.08L1511.83,461.542L1506.58,482.628L1496.96,479.837L1502.89,461.08L1500.32,458.236L1503.28,450.423L1515.5,440.715L1523.08,448.09L1519.57,453.665C1519.57,453.665 1524.82,459.88 1525.65,464.091C1526.49,468.302 1524.63,480.224 1524.44,482.226C1524.25,484.227 1524.07,484.4 1521.82,485.328C1519.57,486.257 1507.22,480.591 1507.22,480.591L1508.2,476.569C1508.2,476.569 1518.26,480.906 1519.44,480.275C1520.63,479.645 1520.78,480.186 1521.57,477.776C1522.36,475.366 1522.66,467.065 1521.15,464.512C1519.65,461.959 1518.19,461.121 1518.19,461.121L1511.83,461.542" style="stroke:black;stroke-width:0.55px;"/>
                </g>
                <g transform="matrix(-0.445978,0.215871,0.271867,0.561663,1886.65,-57.5488)">
                    <path d="M1029.92,444.955L1034.37,453.777C1034.37,453.777 1061.77,449.514 1068.85,451.257C1077.51,453.391 1102.39,460.752 1102.39,460.752L1108.32,450.793C1108.32,450.793 1080.05,443.502 1073.17,442.523C1066.29,441.544 1029.92,444.955 1029.92,444.955Z" style="stroke:black;stroke-width:1.06px;"/>
                </g>
                <g transform="matrix(-0.445978,0.215871,0.271867,0.561663,1886.65,-57.5488)">
                    <path d="M1120.37,484.113L1130.26,504.305L1130.07,510.505L1134.5,510.669L1135.31,504.784L1126.34,482.658L1120.37,484.113Z" style="stroke:black;stroke-width:1.06px;"/>
                </g>
            </g>
            <g>
                <path d="M1547.33,494.31L1526.73,519.06L1527.69,729.286L1547.09,729.428L1547.33,494.31Z" style="fill:white;stroke:black;stroke-width:2.74px;"/>
                <g transform="matrix(-0.810176,0,0,1.00507,2961.03,-3.44631)">
                    <path d="M1547.33,494.31L1526.73,519.06L1527.69,729.286L1547.09,729.428L1547.33,494.31Z" style="fill:white;stroke:black;stroke-width:3px;"/>
                </g>
                <g transform="matrix(0.980831,0,0,2.95625,31.5175,-724.777)">
                    <rect x="1546.41" y="369.958" width="161.134" height="121.822" style="fill:white;stroke:black;stroke-width:1.25px;"/>
                </g>
                <g transform="matrix(1,0,0,1,-180.337,-1.89968)">
                    <path d="M1732.09,495.325L1883.81,496.15L1883.9,505.325L1732.12,505.354L1732.09,495.325Z" style="fill:none;stroke:black;stroke-width:2.8px;"/>
                </g>
                <g transform="matrix(0.999898,0,0,1.0572,0.158321,-26.0535)">
                    <rect x="1558.91" y="381.203" width="137.016" height="74.274" style="fill:white;stroke:black;stroke-width:2.67px;"/>
                </g>
            </g>
        </g>
        <g transform="matrix(1.82337,0,0,1.82337,-0.444337,-9.85721)">
            <g>
                <g transform="matrix(1,0,0,1,-1210.86,-367.411)">
                    <path d="M1791.89,788.644L1824.97,788.668C1824.97,788.668 1826.07,833.738 1825.84,842.671C1825.62,851.106 1826.56,852.879 1818.83,852.878C1809.56,852.877 1759.99,852.931 1759.99,852.931L1759.49,821.776C1759.49,821.776 1781.63,822.197 1784.74,822.042C1790,821.778 1792.55,821.789 1792.25,815.484C1792.1,812.41 1791.89,788.644 1791.89,788.644Z" style="fill:none;stroke:black;stroke-width:2.8px;"/>
                </g>
                <g transform="matrix(-1,0,0,-1,2181.2,1310.12)">
                    <path d="M1791.89,788.644L1824.97,788.668C1824.97,788.668 1826.07,833.738 1825.84,842.671C1825.62,851.106 1826.56,852.879 1818.83,852.878C1809.56,852.877 1759.99,852.931 1759.99,852.931L1759.49,821.776C1759.49,821.776 1781.63,822.197 1784.74,822.042C1790,821.778 1792.55,821.789 1792.25,815.484C1792.1,812.41 1791.89,788.644 1791.89,788.644Z" style="fill:none;stroke:black;stroke-width:2.8px;"/>
                </g>
                <g transform="matrix(0.184228,0,0,0.853679,255.837,-243.422)">
                    <rect x="905.473" y="824.878" width="670.807" height="23.198" style="fill:none;stroke:black;stroke-width:4.53px;"/>
                </g>
            </g>
            <g transform="matrix(0.589424,0,0,0.996016,-467.808,-356.912)">
                <rect x="800.499" y="728.967" width="1195.82" height="475.254" style="fill:none;stroke:black;stroke-width:3.35px;"/>
            </g>
            <g transform="matrix(1,0,0,1,-1031.06,-362.304)">
                <rect x="1620.06" y="733.168" width="18.927" height="49.381" style="fill:none;stroke:black;stroke-width:2.8px;"/>
            </g>
        </g>
    </g>
</svg>
